<svg width="600" height="600" viewBox="0 0 600 600" fill="none" xmlns="http://www.w3.org/2000/svg">
<path d="M271.5 59.4985C277.6 58.3985 289 56.8985 297 56.0985C306.2 55.1985 317.2 54.7985 327 55.0985C335.5 55.3985 347.9 56.2985 354.5 57.0985C361.1 57.8985 370.8 59.3985 376 60.4985C381.2 61.5985 389.8 63.7985 395 65.3985C400.2 66.9985 407.9 69.4985 412 70.9985C416.1 72.4985 425.4 76.4985 432.5 79.9985C439.6 83.4985 450.9 89.7985 457.5 93.9985C464.1 98.1985 473.3 104.698 478 108.298C482.7 111.998 490.5 118.798 495.4 123.498C500.3 128.198 508.6 136.898 513.7 142.998C518.9 149.098 526.2 158.498 529.9 163.998C533.6 169.498 539.1 178.098 542 182.998C544.9 187.898 548.9 195.398 551 199.498C553.1 203.598 556.9 212.398 559.5 218.998C562.1 225.598 565.8 236.398 567.6 242.998C569.5 249.598 572.2 261.298 573.5 268.998C574.8 276.698 576.2 287.898 576.5 293.998C576.9 300.098 576.7 311.699 576.1 319.999C575.4 328.298 574.7 335.199 574.4 335.499C574.1 335.798 570.1 334.099 557 327.499V310.298C557 300.798 556.5 289.198 556 284.498C555.4 279.798 554 271.298 552.9 265.498C551.8 259.698 548.5 247.798 545.5 238.998C542.6 230.198 538 218.298 535.3 212.498C532.6 206.698 527.7 197.498 524.5 191.998C521.3 186.498 515.7 177.898 512.1 172.798C508.5 167.798 501.5 159.098 496.5 153.398C491.5 147.798 484.1 140.098 480 136.298C475.9 132.398 467.5 125.598 461.5 120.998C455.5 116.398 446.7 110.298 442 107.498C437.3 104.698 428.3 99.7985 422 96.7985C415.7 93.6985 406.2 89.6985 401 87.7985C395.8 85.7985 388.6 83.3985 385 82.3985C381.4 81.2985 372.4 79.2985 365 77.8985C353.9 75.7985 347.4 75.1985 328.5 74.7985C313.7 74.3985 301.4 74.5985 294 75.3985C287.7 76.0985 277.1 77.6985 270.5 79.0985C263.9 80.4985 251.9 83.8985 243.7 86.5985C235.6 89.2985 224.4 93.5985 218.8 96.1985C213.1 98.7985 204.4 103.298 199.5 106.298C194.601 109.198 189.602 112.197 188.601 112.798L188.6 112.798C187.5 113.498 185.9 114.498 185.1 115.198C184.2 115.798 178.8 120.098 173 124.598C167.2 129.098 159.1 136.298 154.9 140.398C150.8 144.598 144.5 151.398 141 155.498C137.5 159.598 131.6 167.198 127.8 172.298C124.1 177.298 121 181.698 121 181.998C121 182.298 119.1 185.498 116.7 189.298C114.3 192.998 109.4 202.098 105.7 209.498C102.1 216.898 97.1 229.098 94.6 236.498C92.1 243.898 89 255.598 87.6 262.498C86.2 269.398 85 276.198 85 280.498H75C66.8 280.498 65 280.198 65 278.998C65 278.198 65.5 273.998 66.1 269.798C66.7 265.498 68.9 255.298 71 246.998C73.1 238.798 76.9 226.598 79.5 219.998C82.1 213.398 87.3 201.898 91.2 194.498C95 187.098 101.1 176.498 104.7 170.998C108.3 165.498 113.5 158.098 116.2 154.498C118.9 150.898 124.8 143.798 129.3 138.598C133.8 133.498 142 125.198 147.5 120.298C153 115.298 160.9 108.698 165 105.698C169.1 102.598 177 97.1985 182.5 93.6985C188 90.1985 197.9 84.7985 204.5 81.5985C211.1 78.2985 221 74.0985 226.5 71.9985C232 69.9985 241.9 66.6985 248.5 64.8985C255.1 62.9985 265.4 60.4985 271.5 59.4985Z" fill="#052F47"/>
<path d="M405.7 326.598C406.4 284.798 406.6 280.998 408.2 279.298C409.6 277.898 410.9 277.598 414.3 278.098C416.6 278.398 422.1 279.498 426.5 280.498C430.9 281.498 439.9 283.998 446.5 285.998C453.1 287.998 463.7 291.698 470 294.198C476.3 296.698 487.1 301.598 494 305.098C500.9 308.598 510.3 313.898 515 317.098C519.7 320.198 526.2 323.798 529.5 325.198C532.8 326.498 539.1 329.999 543.5 332.898C548.2 335.999 553 340.198 555.2 343.098C557.2 345.798 560.6 352.099 562.8 356.999C565 361.898 569.4 372.298 572.8 379.999C576.1 387.699 581.3 399.599 590 418.999V516.499H514.5L513.3 520.198C512.7 522.298 510.5 526.099 505 533.499H533.7C562.1 533.499 562.5 533.598 564.8 535.798C566 536.999 567 538.798 567 539.798C567 540.698 565.8 542.398 564.2 543.499C561.5 545.598 561.3 545.598 322.01 545.598H322H321.899C83.0998 545.498 82.4997 545.498 80.2 543.499C79 542.398 78 540.599 78 539.499C78 538.398 78.9 536.599 80 535.499C81.9 533.599 83.3 533.499 147 533.499L144.1 529.298C142.5 526.898 140.6 523.599 140 521.999C139.4 520.398 138.5 516.798 138 513.999C137.6 511.298 137.6 506.499 138 503.499C138.4 500.499 139.8 495.499 141.2 492.499C142.5 489.499 145.6 484.798 148 482.198C150.7 479.298 155.1 476.098 159 474.198C164.8 471.298 166.4 470.999 174.5 470.999C182.2 470.999 184.4 471.398 189.5 473.798C192.8 475.298 197.7 478.599 205.2 485.999L210.3 480.898C213.8 477.499 217.5 474.999 221.5 473.398C226.2 471.599 229.4 471.098 236.5 471.098C244.2 471.098 246.3 471.498 251 473.698C254.1 475.198 258.6 478.599 261.2 481.398C263.9 484.198 267.2 489.098 268.6 492.298C270.4 495.999 271.4 500.398 271.8 504.999C272.1 509.699 271.8 513.798 270.7 517.499C269.8 520.499 267.5 525.398 262 533.499H451L447.7 528.798C445.9 526.098 443.8 522.298 442 516.499H281L280.4 509.798C280.1 505.999 279.2 500.499 278.3 497.499C277.5 494.499 275.8 489.999 274.5 487.499C273.2 484.999 270.1 480.298 262.9 470.999L308.7 470.198C333.9 469.798 365.9 469.699 405 470.499V421.298C405 394.198 405.3 351.598 405.7 326.598Z" fill="#052F47"/>
<path d="M94 286.298C94 284.998 94.3 282.998 94.6 281.798L95.2 279.498H391V365.499C391 412.798 390.8 452.199 390.5 452.999C390.1 454.298 369.3 454.499 211.8 454.499C45.6 454.499 33.3 454.398 31 452.798C29.6 451.898 28.2 450.598 27.8 450.098C27.4 449.498 27 447.499 27 445.798C27 443.598 27.9 441.599 31.9 437.499L58.2 437.398C72.7 437.298 86 437.298 87.8 437.398C89.5 437.398 92.5 436.598 94.3 435.598C96 434.498 98.9 432.298 103.5 427.499L97.5 427.798C94.2 427.898 74.3 427.898 15 427.499L12 424.499C9.8 422.298 9 420.599 9 417.999C9 415.499 9.8 413.699 14.8 408.499L40.7 408.398H40.7065C54.907 408.398 78.006 408.398 117.5 408.598L122 405.499C124.6 403.799 125 402.999 125 402.999C124.95 402.968 124.935 402.946 124.938 402.931C124.587 402.992 122.95 403.116 116.5 402.999C111.501 402.908 81.6 400.999 73 401.798C61.8 401.499 61.8 399.898 59.4 397.298C57.8 395.432 57 393.265 57 390.798C56.9 387.999 57.6 386.298 59.6 384.298C62.3 381.499 61.9 381.699 77 381.499C85.3 381.399 93.4 381.599 94.5 381.499C95.6 381.399 149.5 380.699 332 380.499V371.499L223.5 372.499C163.6 372.499 114.4 373.399 113 372.999C112.2 372.699 94.4 371.298 77.2 370.898C47.8 370.099 45.7 369.898 43.9 367.999C42.8 366.898 41.7 364.199 41.4 361.999C40.9 358.699 41.2 357.499 46 351.499L62.7 350.898C72 350.599 82.5 349.699 85 349.499C87.5 349.399 149.5 345.999 332 349.499V339.499H255.3C213 339.499 164.8 339.799 148 339.499C123.5 340.499 77 338.898 66 338.898C39.3 338.599 16.5 338.198 15.3 337.898C14 337.698 12.1 335.999 11 334.298C9.9 332.499 9 329.798 9 328.298C9 326.698 10.1 324.199 11.6 322.499C13.1 320.798 15.6 319.398 17.4 319.098C19.1 318.798 65.5 318.398 120.5 318.098C175.5 316.999 245.5 316.999 332.5 317.499V307.998L297.5 307.898C278.2 307.798 210.4 307.698 31 307.498L28.5 304.998C26.6 303.098 26 301.498 26 297.998C26 294.198 26.5 293.098 32 288.498H94V286.298Z" fill="#052F47"/>
<path d="M103.9 476.898C103.9 475.099 104.6 472.998 105.5 472.098C106.8 470.798 109.8 470.598 121.3 470.598C133.3 470.598 135.7 470.898 137.3 472.298C138.2 473.298 139 474.798 139 475.798C139 476.798 138.5 477.798 138 477.999C137.4 478.298 135.9 480.698 134.6 483.298C133.3 485.898 131.5 490.499 130.6 493.499C129.8 496.599 128.8 500.298 128 504.499H84.5C42.3 504.499 40.9 504.499 39 502.499C37.7 501.298 37 499.199 37 496.999C37 494.898 37.7 492.798 39 491.499C40.9 489.599 42.3 489.499 79 489.499C103.6 489.499 117 489.199 117 488.499C117 487.999 117.2 486.898 117.5 485.999C117.9 484.798 116.9 484.499 112.5 484.499C107.9 484.499 106.7 484.198 105.5 482.298C104.6 481.098 103.9 478.599 103.9 476.898Z" fill="#052F47"/>
<path d="M118.5 408.999L127 401.999L84.5 401.499L72.5 408.499L118.5 408.999Z" fill="#35AAE2"/>
<path d="M292.891 90.4231C297.338 89.9397 302.409 89.3884 304.5 89.1983C306.7 88.9983 313.9 88.7983 320.5 88.6983C327.1 88.5983 337.8 89.0983 344.2 89.7983C353.8 90.7983 356.2 91.3983 357.5 92.9983C358.3 94.0983 363 100.898 367.8 107.998C372.6 115.098 378.9 125.598 381.8 131.298C384.7 136.898 387 142.198 387 142.998C387 143.798 386.8 144.498 386.5 144.498C386.2 144.498 380 145.398 372.8 146.498C365.5 147.598 350.5 148.898 339.5 149.498C325.1 150.298 314.1 150.298 300.5 149.498C290.1 148.898 277.9 148.098 273.5 147.598C269.1 147.098 263.3 146.398 260.5 145.998C257.8 145.598 254.8 144.998 254 144.498C252.7 143.798 252.8 143.098 254.5 139.298C255.6 136.898 259.3 129.798 262.8 123.498C266.3 117.198 272.5 107.398 284 91.4983L292.2 90.4983L292.891 90.4231Z" fill="#278C02"/>
<path d="M400.5 129.498C397.9 124.298 392.2 114.498 387.8 107.898L379.8 95.6983L387.2 97.9983C391.2 99.2983 397 101.198 400 102.298C403 103.298 410.2 106.598 416 109.498C421.8 112.398 429.4 116.598 433 118.798C436.6 120.998 440.3 123.598 441.3 124.398C443 125.898 442.9 126.098 439.8 127.698C438 128.698 429.5 131.698 421 134.498C412.5 137.298 405.5 139.398 405.4 139.298L400.5 129.498Z" fill="#278C02"/>
<path d="M236 104.498C239.1 103.298 244.7 101.298 248.5 99.9983C252.4 98.7983 255.9 97.6983 256.3 97.5983C256.7 97.5983 257 98.0983 257 98.7983C257 99.4983 256.4 100.698 255.7 101.598C254.9 102.398 251.9 107.098 248.8 112.098C245.8 116.998 241.2 125.198 238.7 130.298C236.1 135.398 233.7 139.598 233.3 139.598C232.9 139.598 227.4 137.998 221 135.998C214.7 134.098 206.5 131.398 202.8 129.998C199.1 128.698 196.3 127.098 196.5 126.598C196.8 125.998 200.1 123.598 203.8 121.198C207.5 118.798 215 114.498 220.5 111.698C226 108.898 233 105.698 236 104.498Z" fill="#278C02"/>
<path d="M450.2 150.398C457.1 147.698 463.1 144.998 463.5 144.498C463.9 143.898 464.8 143.898 465.9 144.498C466.8 144.998 468.7 146.498 472.5 150.498L469.4 154.298C467.7 156.398 463.9 160.298 460.9 163.098C458 165.798 453.3 169.698 450.5 171.698C447.8 173.698 442.4 177.098 438.5 179.398C434.7 181.598 429.7 184.098 423.5 186.398L419.9 175.698C417.8 169.898 415.9 164.398 415.6 163.598C415.1 162.398 417.4 161.298 426.3 158.698C432.5 156.898 443.2 153.198 450.2 150.398Z" fill="#278C02"/>
<path d="M144.5 176.098C149.1 169.998 157 160.598 162.1 155.198C170 146.898 171.8 145.498 174 145.798C175.4 146.098 181.7 148.298 188 150.698C194.4 153.198 204.7 156.698 211 158.498C217.4 160.298 223 162.198 223.5 162.598C224.2 163.198 223.2 166.998 220.8 173.298C218.8 178.698 215.8 187.798 214.2 193.598C212.6 199.298 210.3 208.798 209.2 214.598C208.1 220.298 206.6 228.398 206 232.598C205.3 236.698 204.5 245.498 203.5 264.098L154.3 264.298C115.7 264.498 104.9 264.298 104.5 263.298C104.2 262.598 104.9 258.198 106 253.598C107.2 248.898 109.3 241.698 110.7 237.598C112.1 233.398 115.9 224.698 119 218.098C122.1 211.498 127.3 201.798 130.5 196.598C133.7 191.298 140 182.098 144.5 176.098Z" fill="#278C02"/>
<path d="M237.1 182.598C239.3 176.198 241.7 170.098 242.4 168.898C243.7 166.998 244.3 166.898 248.7 167.698C251.3 168.198 260.3 169.298 268.5 170.298C279.6 171.498 292.8 171.998 318.5 171.998C340.9 171.998 358 171.598 366 170.698C372.9 169.998 381.2 168.998 384.5 168.498C387.8 167.998 391.9 167.298 393.5 166.998C396.5 166.498 396.6 166.598 399.7 174.798C401.5 179.298 403.6 185.298 404.5 188.098C405.8 192.098 405.9 193.198 404.8 193.798C404.1 194.198 397 196.098 389 197.998C381.1 199.998 367.5 202.398 358.8 203.498C350.1 204.698 338.2 205.598 321.5 205.598L322.3 201.098C322.9 197.298 322.8 196.498 321.3 195.898C320.2 195.598 315.1 197.398 308 200.898C301.7 203.898 292.3 208.298 287 210.598C281.8 212.798 277.2 214.998 276.8 215.398C276.3 215.798 276.5 216.598 277.3 217.198C278 217.898 288.2 222.998 300 228.498C311.9 234.098 321.9 238.598 322.3 238.598C322.7 238.598 322.8 236.198 321.8 228.098L339.2 227.398C348.7 226.998 362.4 225.898 369.5 225.098C376.7 224.198 387.5 222.398 393.5 220.998C399.6 219.698 406.2 218.098 412 216.598L413 220.298C413.6 222.398 414.7 229.198 415.6 235.598C416.4 241.898 417 250.898 416.5 264.098L223.5 264.598L224.2 248.298C224.5 239.398 225.6 227.998 226.5 223.098C227.4 218.098 229.2 209.598 230.6 204.098C232 198.598 234.9 188.898 237.1 182.598Z" fill="#278C02"/>
<path d="M472.5 185.498C475.8 182.898 481 178.198 484 175.098L489.5 169.398L493.5 173.798C495.7 176.198 500.5 182.698 504.2 188.098C507.9 193.598 513.4 202.798 516.4 208.598C519.4 214.298 523.8 223.798 526.1 229.598C528.4 235.298 531.6 244.298 533.2 249.598C534.8 254.798 537 263.298 538 268.598C539.1 273.798 540.4 282.998 541 289.098C541.6 295.098 542 303.798 542 308.298C542 312.798 541.7 316.798 541.3 316.998C540.9 317.298 535.8 314.298 530 310.398C524.3 306.598 515 300.898 509.5 297.798C504 294.698 495.9 290.498 491.5 288.498C487.1 286.498 478.1 282.798 471.5 280.298C464.9 277.798 455.5 274.498 450.5 272.998C445.6 271.598 440.4 269.998 439 269.598C436.6 268.898 436.5 268.798 435.9 254.498C435.6 246.598 434.3 234.398 433.1 227.598C432 220.698 430.8 213.798 430.5 212.298C430.2 210.498 430.5 209.598 431.3 209.598C432 209.598 437.7 206.998 444 203.798C450.4 200.598 458 196.198 461 194.098C464.1 191.998 469.2 188.098 472.5 185.498Z" fill="#278C02"/>
<path d="M161 312.398C158.5 311.198 156.4 310.198 156.3 310.098C156.2 310.098 157.8 309.998 159.8 309.898C161.9 309.898 162.9 309.998 162.2 310.198C161.4 310.398 161.8 311.198 163.2 312.498C165.4 314.498 165.4 314.498 161 312.398Z" fill="#35AAE2"/>
<path d="M102 342.398C105.6 342.398 111.2 341.798 114.5 341.098C118.7 340.098 128.7 339.798 148 339.798C163.1 339.798 172.4 340.098 168.5 340.398C164.6 340.798 160.5 341.698 159.3 342.498C158.2 343.298 157.4 344.598 157.6 345.198C157.8 345.898 157.4 346.598 156.7 346.698C156.1 346.798 158 347.098 161 347.398C164.7 347.898 159.5 348.298 145 348.798C133.2 349.298 115 349.498 85.5 348.998L90.5 345.698C94.8 342.898 96.4 342.498 102 342.398Z" fill="#35AAE2"/>
<path d="M239 341.498C239 340.898 242.4 340.398 246.8 340.198H246.7C251 339.998 262.8 339.898 273 339.898C283.2 339.898 287 340.098 281.5 340.198C276 340.398 270.8 340.798 270 341.098C269.2 341.498 261.9 341.898 253.7 342.098C244.3 342.398 239 342.098 239 341.498Z" fill="#35AAE2"/>
<path d="M222.1 347.998C222.1 346.998 223.333 346.365 225.8 346.098C227.9 345.898 238.4 345.898 249.1 346.198C259.8 346.398 269 346.998 269.6 347.498C270.1 347.998 275.3 348.498 281.1 348.698C286.9 348.898 276 349.198 256.8 349.298C226.5 349.498 222.1 349.298 222.1 347.998Z" fill="#35AAE2"/>
<path d="M112.5 376.499C113.1 375.499 113.3 375.399 114.5 374.999C115.7 374.499 155.7 371.698 209.6 371.698C275.3 371.798 302.7 372.098 292.8 372.598C284.7 373.098 277.3 373.898 276.3 374.498C275 375.198 275.9 375.398 279.8 375.498C282.7 375.498 285.3 375.998 285.6 376.498C285.9 377.098 284.1 377.598 281.3 377.798C278.5 377.898 281.5 378.398 289.1 379.098C299.1 379.998 280.9 380.198 199.1 380.298C99.3 380.498 104.3 382.299 108.5 380.499C110.8 379.499 111.9 377.399 112.5 376.499Z" fill="#35AAE2"/>
<path d="M420.2 339.498C420 337.598 420.1 335.398 420.4 334.798V334.698C420.8 333.798 431.6 333.498 517.5 333.398L525.5 337.398C529.9 339.598 535.7 343.098 538.5 345.198C541.2 347.298 544.5 350.598 545.7 352.498C547 354.398 548 356.298 548 356.698C548 357.198 545.5 357.498 542.5 357.498C537.5 357.498 534.1 358.399 529.5 354.499C526.7 352.199 520.3 350.399 515.6 346.499L420 343.999L420.2 339.498Z" fill="white"/>
<path d="M471.5 400.098L469.5 384.499V367.999L523 368.598L525 372.798C526.1 375.198 530.3 385.098 534.5 394.798C538.6 404.598 542 412.798 542 413.098C542 413.398 540.5 413.398 538.8 413.198C537 412.998 530.5 411.898 524.5 410.698C518.5 409.498 504 406.698 471.5 400.098Z" fill="white"/>
<path d="M547.5 392.298C542.3 380.298 538 370.098 538 369.498C538 368.998 541.2 368.498 553 368.498L554.4 371.798C555.2 373.598 559.5 383.398 564 393.498C568.5 403.698 572.5 412.898 572.8 413.998C573.5 415.798 573.1 415.898 565.5 415.198C561.1 414.698 557.4 414.298 557.3 414.198C557.2 414.098 552.8 404.298 547.5 392.298Z" fill="white"/>
<path d="M568.5 438.499C562.8 438.299 561.6 440.999 562 430.998C562.1 428.498 560.5 419.499 569.5 426.499C576 424.499 576 429.099 576 431.499C576 432.899 575.91 433.155 576 434.499C576.5 441.999 571.8 438.599 568.5 438.499Z" fill="white"/>
<path d="M562.5 447.499C562.5 440.481 563 442.799 568.5 442.499C571.9 442.399 574.8 442.301 575.3 442.201C575.5 443.001 575.3 446.597 575.3 452.797L572 454.499C570.2 453.999 568.5 454.299 566.5 453.999C563.971 453.619 562.5 455.499 562.5 447.499Z" fill="white"/>
<path d="M566 468.999C562.4 468.999 562 472.499 562 464.498V460.999H576V465.298C576 468.998 573.7 479.199 572.5 470.499C570.7 470.099 568 468.999 566 468.999Z" fill="white"/>
<path d="M566.5 486.898C561.7 485.898 562 483.798 562 481.298C563 471.999 562 477.999 576 477.999L576.5 478.999V482.999C576.5 487.499 573.5 494.099 573.5 488.999C572.5 488.599 569.4 487.498 566.5 486.898Z" fill="white"/>
<path d="M159.2 498.498C160.5 496.598 163.5 493.998 166 492.698C169.6 490.898 171.5 490.498 175.5 490.998C178.3 491.298 182.1 492.598 184 493.898C185.9 495.098 188.5 498.198 189.7 500.598C191 503.098 192 506.598 192 508.498C192 510.498 191.4 513.598 190.6 515.498C189.8 517.498 188.1 519.998 186.8 521.198C185.6 522.398 182.8 524.098 180.8 524.998C178.7 525.798 175.5 526.598 173.8 526.598C172 526.598 168.5 525.498 166 524.298C163.5 523.098 160.5 520.498 159.2 518.498C158 516.598 156.7 513.698 156.4 511.998C156 510.398 156 507.498 156.4 505.498C156.7 503.598 158 500.498 159.2 498.498Z" fill="white"/>
<path d="M220.8 497.898C221.7 496.398 224.8 494.198 227.5 492.898C230.3 491.598 233.7 490.598 235.3 490.598C236.8 490.598 239.7 491.198 241.8 492.098C243.8 492.998 246.6 494.598 247.8 495.898C249.1 497.098 250.9 499.398 251.7 500.998C252.6 502.698 253.3 506.098 253.3 508.498C253.3 510.998 252.5 514.798 251.4 516.998C250.4 519.098 247.9 521.898 246 523.198C244.1 524.398 240.7 525.698 238.5 526.098C236.3 526.498 232.7 526.298 230.5 525.598C228.3 524.998 225 523.098 223.2 521.298C221.4 519.498 219.2 515.998 218.3 513.498C216.9 509.798 216.8 508.298 217.8 504.798C218.5 502.498 219.8 499.298 220.8 497.898Z" fill="white"/>
<path d="M465.6 495.398C466.7 494.398 469.1 492.998 471 492.098C472.9 491.298 476.1 490.598 478 490.598C479.9 490.598 483.3 491.398 485.5 492.398C487.7 493.398 490.7 495.598 492.3 497.398C493.8 499.098 495.4 502.198 496 504.298C496.6 506.698 496.6 509.498 496 511.998C495.4 514.198 494.3 517.098 493.5 518.298C492.7 519.498 490.5 521.698 488.8 522.998C487 524.398 483.5 525.798 481 526.098C478.5 526.498 475 526.298 473 525.698C471.1 525.098 468.3 523.698 466.8 522.598C465.2 521.498 463.1 518.698 462 516.498C460.9 514.298 460 510.698 460 508.498C460 506.298 460.9 502.898 461.9 500.798C462.9 498.698 464.6 496.298 465.6 495.398Z" fill="white"/>
<path d="M201 532.498C201.6 532.498 202.5 531.398 203.1 529.998C203.7 528.698 204.8 527.498 205.4 527.498C206 527.498 207 528.898 209 533.498L204.9 533.798C202.7 533.898 200.6 533.698 200.4 533.298C200.2 532.898 200.4 532.498 201 532.498Z" fill="white"/>
<path d="M420.5 324.999L420.4 309.499C420.4 300.999 420.3 291.499 420.5 293.499C420.8 296.899 422 300.599 425 300.999C426.7 301.299 433.6 304.199 441 306.399C448.4 308.499 462.2 312.999 471.5 316.399C480.9 319.799 489.9 323.199 491.5 323.999C494.2 325.299 490.4 325.399 420.5 324.999Z" fill="#0A80C2"/>
<path d="M420 469.499V406.499V342.999L519 343.499L522.3 345.699C524.2 346.999 528 350.099 536 357.499L499.1 357.699C478.8 357.899 461.9 358.199 461.5 358.499C461.2 358.799 461.1 359.899 461.4 360.999C461.7 362.099 463.7 364.099 469.9 367.999V397.999L465.7 401.699C462.3 404.799 461.8 405.599 463 406.399C463.8 406.899 469.7 408.299 476 409.499C482.3 410.699 499.9 414.099 515 417.099C530.1 420.099 543.5 422.999 544.8 423.499C546.7 424.299 546.9 424.199 546.5 422.699C546.2 421.799 546.6 422.399 547.4 423.999C548.6 426.399 548.9 432.599 548.9 456.499C549 472.699 548.7 489.699 547.5 502.499H535.8C528.6 502.499 524 502.099 524 501.499C524 500.999 523.1 498.099 522.1 495.199C520.7 491.599 518.3 488.199 514.3 484.199C511.1 480.999 505.6 476.899 502 475.099C498.4 473.199 493.1 471.199 490.3 470.599C487 469.899 472.5 469.499 420 469.499Z" fill="#0A80C2"/>
<path d="M368 381.999C367.5 379.499 367.7 377.799 367.7 375.499V371.499L367 338.499H371.5C371.7 336.299 371.7 377.099 371.6 384.499V435.199C371.822 435.246 370.37 435.304 367.5 435.367C352.232 435.705 296.808 436.215 239.4 436.299C116.9 436.399 115.5 436.399 118.4 434.499C121.4 432.699 124.9 432.599 242.9 432.599C321.039 432.599 357.455 431.413 367.569 431.963L368.5 385.999L368 381.999Z" fill="#0A80C2"/>
<path d="M565.5 414.999L573 414.999C573.5 415.499 573.636 415.77 574 416.499C574.3 417.099 574.8 418.799 575.2 421.699C575.6 424.599 575.6 427.299 575.2 427.699C574.8 428.099 571.6 428.099 561.9 426.999L557.5 413.999L565.5 414.999Z" fill="#0A80C2"/>
<path d="M562.4 443.999L562.1 439.199L561.8 434.499L568.1 434.399C572.7 434.399 574.8 434.799 575.7 435.899C576.4 436.799 576.7 438.599 576.4 440.199C576 441.699 575.4 443.399 574.9 443.999C574.5 444.499 571.6 444.699 562.4 443.999Z" fill="#0A80C2"/>
<path d="M561.9 461.399L562.1 455.799L562.3 450.099L568.3 450.799C571.7 451.199 574.8 451.999 575.2 452.699C575.6 453.399 575.9 455.599 575.9 461.399H561.9Z" fill="#0A80C2"/>
<path d="M562.4 477.999L562.1 472.699L561.8 467.499L565.6 467.599C567.7 467.599 570.7 467.999 572.4 468.299C575.1 468.899 575.4 469.399 576.4 478.999L562.4 477.999Z" fill="#0A80C2"/>
<path d="M364.1 485.099C321.9 485.199 285.2 485.799 286.5 485.499C287.8 485.099 326.9 483.799 446.9 483.399L444.1 487.699C442.5 489.999 440.4 494.199 437.4 502.299L398.4 502.599C376.9 502.799 344.1 502.699 291.5 501.899L290.4 497.399C289.8 494.899 289 492.499 288.7 491.899C288.3 491.199 312.3 490.999 432.4 491.499L434.9 489.199C436.3 487.899 438.1 486.399 439.1 485.899C440.2 485.199 414.4 484.999 364.1 485.099Z" fill="#0A80C2"/>
<path d="M561.1 496.699C561.6 494.099 562 490.199 562 487.999L562.2 484.199L566.3 484.799C568.5 485.199 571.5 486.099 572.9 486.699C575.1 487.799 575.4 488.599 575.9 501.399H560.4L561.1 496.699Z" fill="#0A80C2"/>
<path d="M365 435.499H372V307.499H365V435.499Z" fill="#0A80C2"/>
<path d="M420.6 297.199C420.3 295.099 420.3 293.199 420.6 292.999C421 292.699 422.4 292.799 423.9 293.199C425.3 293.499 433.6 295.999 442.2 298.699C450.9 301.299 462.6 305.299 468.2 307.499C473.9 309.799 483.1 313.899 488.8 316.799C494.4 319.699 500 322.799 501.3 323.699C503.5 325.399 503.5 325.499 499.2 325.499C496.9 325.499 493.5 324.799 491.7 323.999C490 323.199 480.9 319.799 471.5 316.399C462.1 312.999 448.4 308.499 441 306.399C433.6 304.199 426.1 302.199 424.3 301.699C421.5 301.099 421 300.499 420.6 297.199Z" fill="#35AAE2"/>
<path d="M469.9 397.999L469.5 383.999V367.999L471.5 399.999L492.5 404.199C504 406.599 518.5 409.399 524.5 410.599C530.5 411.799 537.8 412.299 539.5 412.499C542.899 412.898 542.5 413.999 543.5 415.999C544.3 417.499 545.9 420.399 546.5 421.999C547.5 424.599 546.9 424.499 544.7 423.499C543.5 422.999 530.1 420.099 515 417.099C499.9 414.099 482.3 410.699 476 409.499C469.7 408.299 461.8 406.999 461 406.499C459.8 405.699 462.3 404.799 469.9 397.999Z" fill="#35AAE2"/>
<path d="M288.3 487.499C287.9 487.499 287.5 486.899 287.5 486.299C287.4 485.299 303.4 484.999 364.2 484.999C414.6 484.999 440.3 485.299 439.2 485.999C438.3 486.499 436.4 487.999 432.6 491.599L360.6 491.299C292.7 490.999 288.6 490.899 288.8 489.299C288.9 488.299 288.7 487.499 288.3 487.499Z" fill="#35AAE2"/>
<path d="M452 399.498C452 384.398 452.3 370.998 452.7 369.698C453.1 368.298 454 367.498 454.9 367.698C456.3 367.998 456.5 372.298 456.5 406.998C456.6 428.498 456.5 449.298 456.3 453.198C456.1 458.198 455.6 460.498 454.7 460.498C453.8 460.498 453.3 456.098 452.7 443.798C452.3 434.498 452 414.598 452 399.498Z" fill="white"/>
<path d="M464.5 445.998C464.2 445.198 464.3 443.798 464.6 442.998C465 441.898 466.9 441.498 472.3 441.498C476.3 441.498 481.1 441.998 483 442.598C484.9 443.298 486.8 444.298 487.2 444.898C487.6 445.498 487.7 446.298 487.4 446.698C487.2 447.198 482 447.498 476 447.498C467.1 447.498 464.9 447.198 464.5 445.998Z" fill="white"/>
<path d="M501.9 382.199C498 377.499 498 377.499 500.3 376.599C501.5 375.999 503.6 375.599 505 375.599C506.4 375.599 509.1 376.599 511 377.999C512.9 379.299 515.9 382.099 517.6 384.199C519.3 386.299 521.9 389.899 523.3 392.199C524.8 394.599 526.2 397.599 526.5 398.999C527 401.399 526.8 401.499 522.5 401.499C519.8 401.499 517.4 400.899 516.5 399.999C515.7 399.199 515 398.199 515 397.699C515 397.299 512.9 394.699 510.4 391.999C507.9 389.199 504.1 384.899 501.9 382.199Z" fill="#0A80C2"/>
<path d="M165.1 507.899C165.1 506.499 166.274 504.107 168 502.399C169.825 500.593 171.333 499.543 173.9 499.499C176.817 499.448 181 502.399 181 502.399C181 502.399 183.875 505.618 184 507.999C184.079 509.504 183.5 510.499 182.9 511.699C182.3 512.999 180.8 514.799 179.6 515.699C178.5 516.699 176.3 517.499 174.8 517.499C173.2 517.499 170.9 516.899 169.5 516.199C168.1 515.599 166.6 513.999 166 512.699C165.5 511.499 165 509.299 165.1 507.899Z" fill="#0A80C2"/>
<path d="M226.1 508.099C226.175 505.541 229.5 502.499 229.5 502.499C229.5 502.499 233.47 499.623 236.3 499.899C239.02 500.164 240.7 501.799 242.3 503.499C243.8 505.099 245.026 506.606 245 508.999C244.974 511.427 243.819 512.784 242.1 514.499C240.171 516.423 238.2 517.499 235.8 517.499C234 517.499 230.9 516.299 230.9 516.299C230.9 516.299 228.566 514.21 227.6 512.499C226.707 510.918 226.047 509.913 226.1 508.099Z" fill="#0A80C2"/>
<path d="M469.1 507.899C469.1 506.499 470.4 503.999 472 502.399C473.7 500.699 475.9 499.499 477.4 499.499C478.8 499.499 481.2 500.099 482.8 500.899C484.3 501.599 486.1 503.399 486.8 504.899C487.4 506.299 488 508.399 488 509.499C488 510.599 486.7 512.899 485 514.499C482.7 516.799 481.1 517.499 478.3 517.499C476.2 517.499 473.8 516.899 472.9 516.199C472 515.499 470.8 513.999 470.2 512.699C469.5 511.499 469 509.299 469.1 507.899Z" fill="#0A80C2"/>
<path d="M523.189 401.03C525.757 400.749 526.162 400.186 525.622 398.124L524.946 395.499L526.973 397.842C528.054 399.155 528.865 400.467 529 400.936C529 401.311 526.973 401.499 524.676 401.499C521.703 401.374 521.207 401.217 523.189 401.03Z" fill="#35AAE2"/>
<path d="M332 371.499V380.499L98.5 381.499L109.5 372.499L332 371.499Z" fill="#35AAE2"/>
<path d="M332 349.499V339.499H100.5L84.5 349.499H332Z" fill="#0A80C2"/>
<path d="M432.5 491.999L439.5 485.499H429L412 484.999H360.5H319L286.5 485.499L289 491.999L310 491.499H347L432.5 491.999Z" fill="#35AAE2"/>
<path d="M333 317.499V307.499H151L171 317.499H333Z" fill="#0A80C2"/>
</svg>
